<mxfile host="Electron" modified="2023-12-03T13:01:38.815Z" agent="Mozilla/5.0 (Windows NT 10.0; Win64; x64) AppleWebKit/537.36 (KHTML, like Gecko) draw.io/22.0.3 Chrome/114.0.5735.289 Electron/25.8.4 Safari/537.36" etag="IxhjbulHMlyAoH8vQVou" version="22.0.3" type="device">
  <diagram id="C5RBs43oDa-KdzZeNtuy" name="Page-1">
    <mxGraphModel dx="1036" dy="1775" grid="1" gridSize="10" guides="1" tooltips="1" connect="1" arrows="1" fold="1" page="1" pageScale="1" pageWidth="827" pageHeight="1169" math="0" shadow="0">
      <root>
        <mxCell id="WIyWlLk6GJQsqaUBKTNV-0" />
        <mxCell id="WIyWlLk6GJQsqaUBKTNV-1" parent="WIyWlLk6GJQsqaUBKTNV-0" />
        <mxCell id="a9Li45Q5bDSex4bEBp2d-1" style="edgeStyle=orthogonalEdgeStyle;rounded=0;orthogonalLoop=1;jettySize=auto;html=1;" parent="WIyWlLk6GJQsqaUBKTNV-1" source="a9Li45Q5bDSex4bEBp2d-2" target="a9Li45Q5bDSex4bEBp2d-9" edge="1">
          <mxGeometry relative="1" as="geometry" />
        </mxCell>
        <mxCell id="a9Li45Q5bDSex4bEBp2d-2" value="start" style="ellipse;whiteSpace=wrap;html=1;" parent="WIyWlLk6GJQsqaUBKTNV-1" vertex="1">
          <mxGeometry x="30" y="360" width="120" height="80" as="geometry" />
        </mxCell>
        <mxCell id="a9Li45Q5bDSex4bEBp2d-43" value="" style="edgeStyle=orthogonalEdgeStyle;rounded=0;orthogonalLoop=1;jettySize=auto;html=1;" parent="WIyWlLk6GJQsqaUBKTNV-1" source="a9Li45Q5bDSex4bEBp2d-7" target="a9Li45Q5bDSex4bEBp2d-42" edge="1">
          <mxGeometry relative="1" as="geometry" />
        </mxCell>
        <mxCell id="a9Li45Q5bDSex4bEBp2d-7" value="&lt;div&gt;input(*temp)&lt;/div&gt;&lt;div&gt;outpu(*temp)&lt;/div&gt;" style="rounded=0;whiteSpace=wrap;html=1;" parent="WIyWlLk6GJQsqaUBKTNV-1" vertex="1">
          <mxGeometry x="610" y="330" width="160" height="140" as="geometry" />
        </mxCell>
        <mxCell id="a9Li45Q5bDSex4bEBp2d-8" style="edgeStyle=orthogonalEdgeStyle;rounded=0;orthogonalLoop=1;jettySize=auto;html=1;exitX=1;exitY=0.75;exitDx=0;exitDy=0;" parent="WIyWlLk6GJQsqaUBKTNV-1" source="a9Li45Q5bDSex4bEBp2d-9" target="a9Li45Q5bDSex4bEBp2d-7" edge="1">
          <mxGeometry relative="1" as="geometry">
            <Array as="points">
              <mxPoint x="414" y="402" />
              <mxPoint x="414" y="400" />
            </Array>
          </mxGeometry>
        </mxCell>
        <mxCell id="a9Li45Q5bDSex4bEBp2d-9" value="std temp;" style="shape=parallelogram;perimeter=parallelogramPerimeter;whiteSpace=wrap;html=1;fixedSize=1;" parent="WIyWlLk6GJQsqaUBKTNV-1" vertex="1">
          <mxGeometry x="340" y="370" width="120" height="60" as="geometry" />
        </mxCell>
        <mxCell id="a9Li45Q5bDSex4bEBp2d-42" value="end" style="ellipse;whiteSpace=wrap;html=1;" parent="WIyWlLk6GJQsqaUBKTNV-1" vertex="1">
          <mxGeometry x="870" y="360" width="120" height="80" as="geometry" />
        </mxCell>
        <mxCell id="OJeUVcxQJhu6BsguNXDx-4" value="" style="edgeStyle=orthogonalEdgeStyle;rounded=0;orthogonalLoop=1;jettySize=auto;html=1;" parent="WIyWlLk6GJQsqaUBKTNV-1" source="OJeUVcxQJhu6BsguNXDx-1" target="OJeUVcxQJhu6BsguNXDx-3" edge="1">
          <mxGeometry relative="1" as="geometry" />
        </mxCell>
        <mxCell id="OJeUVcxQJhu6BsguNXDx-1" value="struct student" style="shape=parallelogram;perimeter=parallelogramPerimeter;whiteSpace=wrap;html=1;fixedSize=1;" parent="WIyWlLk6GJQsqaUBKTNV-1" vertex="1">
          <mxGeometry x="294" y="-150" width="120" height="60" as="geometry" />
        </mxCell>
        <mxCell id="kJ5VU3gBax6Lj0mMC8Lf-1" value="" style="edgeStyle=orthogonalEdgeStyle;rounded=0;orthogonalLoop=1;jettySize=auto;html=1;" parent="WIyWlLk6GJQsqaUBKTNV-1" source="OJeUVcxQJhu6BsguNXDx-3" target="kJ5VU3gBax6Lj0mMC8Lf-0" edge="1">
          <mxGeometry relative="1" as="geometry" />
        </mxCell>
        <mxCell id="OJeUVcxQJhu6BsguNXDx-3" value="&lt;div style=&quot;color: rgb(204, 204, 204); background-color: rgb(31, 31, 31); font-family: Consolas, &amp;quot;Courier New&amp;quot;, monospace; font-size: 14px; line-height: 19px;&quot;&gt;&lt;div&gt;char &lt;span style=&quot;color: #9cdcfe;&quot;&gt;name&lt;/span&gt;[&lt;span style=&quot;color: #b5cea8;&quot;&gt;30&lt;/span&gt;];&lt;/div&gt;&lt;div&gt;&amp;nbsp; &amp;nbsp; &lt;span style=&quot;color: #569cd6;&quot;&gt;int&lt;/span&gt; &lt;span style=&quot;color: #9cdcfe;&quot;&gt;age&lt;/span&gt;, &lt;span style=&quot;color: #9cdcfe;&quot;&gt;phone_number&lt;/span&gt;;&lt;/div&gt;&lt;div&gt;&amp;nbsp; &amp;nbsp; &lt;span style=&quot;color: #569cd6;&quot;&gt;char&lt;/span&gt; &lt;span style=&quot;color: #9cdcfe;&quot;&gt;email_adress&lt;/span&gt;[&lt;span style=&quot;color: #b5cea8;&quot;&gt;100&lt;/span&gt;];&lt;/div&gt;&lt;/div&gt;" style="rounded=0;whiteSpace=wrap;html=1;" parent="WIyWlLk6GJQsqaUBKTNV-1" vertex="1">
          <mxGeometry x="500" y="-190" width="170" height="140" as="geometry" />
        </mxCell>
        <mxCell id="OJeUVcxQJhu6BsguNXDx-10" style="edgeStyle=orthogonalEdgeStyle;rounded=0;orthogonalLoop=1;jettySize=auto;html=1;" parent="WIyWlLk6GJQsqaUBKTNV-1" source="OJeUVcxQJhu6BsguNXDx-7" target="OJeUVcxQJhu6BsguNXDx-9" edge="1">
          <mxGeometry relative="1" as="geometry" />
        </mxCell>
        <mxCell id="OJeUVcxQJhu6BsguNXDx-7" value="input(std *temp)" style="rounded=0;whiteSpace=wrap;html=1;shape=label;fixedSize=1;" parent="WIyWlLk6GJQsqaUBKTNV-1" vertex="1">
          <mxGeometry x="290" y="10" width="270" height="60" as="geometry" />
        </mxCell>
        <mxCell id="OJeUVcxQJhu6BsguNXDx-9" value="&lt;div style=&quot;color: rgb(204, 204, 204); background-color: rgb(31, 31, 31); font-family: Consolas, &amp;quot;Courier New&amp;quot;, monospace; font-size: 14px; line-height: 19px;&quot;&gt;&lt;div&gt;printf(&lt;span style=&quot;color: #ce9178;&quot;&gt;&quot;nhap ten sinh vien:&quot;&lt;/span&gt;);&lt;/div&gt;&lt;div&gt;&amp;nbsp; &amp;nbsp; &lt;span style=&quot;color: #dcdcaa;&quot;&gt;getchar&lt;/span&gt;();&lt;/div&gt;&lt;div&gt;&amp;nbsp; &amp;nbsp; &lt;span style=&quot;color: #dcdcaa;&quot;&gt;gets&lt;/span&gt;(&lt;span style=&quot;color: #9cdcfe;&quot;&gt;temp&lt;/span&gt;-&amp;gt;&lt;span style=&quot;color: #9cdcfe;&quot;&gt;name&lt;/span&gt;);&lt;/div&gt;&lt;div&gt;&amp;nbsp; &amp;nbsp; &lt;span style=&quot;color: #dcdcaa;&quot;&gt;printf&lt;/span&gt;(&lt;span style=&quot;color: #ce9178;&quot;&gt;&quot;nhap tuoi:&quot;&lt;/span&gt;);&lt;/div&gt;&lt;div&gt;&amp;nbsp; &amp;nbsp; &lt;span style=&quot;color: #dcdcaa;&quot;&gt;scanf&lt;/span&gt;(&lt;span style=&quot;color: #ce9178;&quot;&gt;&quot;&lt;/span&gt;&lt;span style=&quot;color: #9cdcfe;&quot;&gt;%d&lt;/span&gt;&lt;span style=&quot;color: #ce9178;&quot;&gt;&quot;&lt;/span&gt;,&lt;span style=&quot;color: #d4d4d4;&quot;&gt;&amp;amp;&lt;/span&gt;&lt;span style=&quot;color: #9cdcfe;&quot;&gt;temp&lt;/span&gt;-&amp;gt;&lt;span style=&quot;color: #9cdcfe;&quot;&gt;age&lt;/span&gt;);&lt;/div&gt;&lt;div&gt;&amp;nbsp; &amp;nbsp; &lt;span style=&quot;color: #dcdcaa;&quot;&gt;printf&lt;/span&gt;(&lt;span style=&quot;color: #ce9178;&quot;&gt;&quot;nhap sdt:&quot;&lt;/span&gt;);&lt;/div&gt;&lt;div&gt;&amp;nbsp; &amp;nbsp; &lt;span style=&quot;color: #dcdcaa;&quot;&gt;scanf&lt;/span&gt;(&lt;span style=&quot;color: #ce9178;&quot;&gt;&quot;&lt;/span&gt;&lt;span style=&quot;color: #9cdcfe;&quot;&gt;%d&lt;/span&gt;&lt;span style=&quot;color: #ce9178;&quot;&gt;&quot;&lt;/span&gt;,&lt;span style=&quot;color: #d4d4d4;&quot;&gt;&amp;amp;&lt;/span&gt;&lt;span style=&quot;color: #9cdcfe;&quot;&gt;temp&lt;/span&gt;-&amp;gt;&lt;span style=&quot;color: #9cdcfe;&quot;&gt;phone_number&lt;/span&gt;);&lt;/div&gt;&lt;div&gt;&amp;nbsp; &amp;nbsp; &lt;span style=&quot;color: #dcdcaa;&quot;&gt;printf&lt;/span&gt;(&lt;span style=&quot;color: #ce9178;&quot;&gt;&quot;nhap email:&quot;&lt;/span&gt;);&lt;/div&gt;&lt;div&gt;&amp;nbsp; &amp;nbsp; &lt;span style=&quot;color: #dcdcaa;&quot;&gt;getchar&lt;/span&gt;();&lt;/div&gt;&lt;div&gt;&amp;nbsp; &amp;nbsp; &lt;span style=&quot;color: #dcdcaa;&quot;&gt;gets&lt;/span&gt;(&lt;span style=&quot;color: #9cdcfe;&quot;&gt;temp&lt;/span&gt;-&amp;gt;&lt;span style=&quot;color: #9cdcfe;&quot;&gt;email_adress&lt;/span&gt;);&lt;/div&gt;&lt;div&gt;}&lt;/div&gt;&lt;/div&gt;" style="rhombus;whiteSpace=wrap;html=1;" parent="WIyWlLk6GJQsqaUBKTNV-1" vertex="1">
          <mxGeometry x="700" y="-30" width="520" height="140" as="geometry" />
        </mxCell>
        <mxCell id="OJeUVcxQJhu6BsguNXDx-13" style="edgeStyle=orthogonalEdgeStyle;rounded=0;orthogonalLoop=1;jettySize=auto;html=1;" parent="WIyWlLk6GJQsqaUBKTNV-1" source="OJeUVcxQJhu6BsguNXDx-14" target="OJeUVcxQJhu6BsguNXDx-15" edge="1">
          <mxGeometry relative="1" as="geometry" />
        </mxCell>
        <mxCell id="OJeUVcxQJhu6BsguNXDx-14" value="output(std *temp)" style="rounded=0;whiteSpace=wrap;html=1;shape=label;fixedSize=1;" parent="WIyWlLk6GJQsqaUBKTNV-1" vertex="1">
          <mxGeometry x="290" y="200" width="270" height="60" as="geometry" />
        </mxCell>
        <mxCell id="OJeUVcxQJhu6BsguNXDx-15" value="&lt;div style=&quot;color: rgb(204, 204, 204); background-color: rgb(31, 31, 31); font-family: Consolas, &amp;quot;Courier New&amp;quot;, monospace; font-size: 14px; line-height: 19px;&quot;&gt;printf(&lt;span style=&quot;color: #ce9178;&quot;&gt;&quot;ten:&lt;/span&gt;&lt;span style=&quot;color: #9cdcfe;&quot;&gt;%s&lt;/span&gt;&lt;span style=&quot;color: #ce9178;&quot;&gt; &lt;/span&gt;&lt;span style=&quot;color: #d7ba7d;&quot;&gt;\n&lt;/span&gt;&lt;span style=&quot;color: #ce9178;&quot;&gt;tuoi:&lt;/span&gt;&lt;span style=&quot;color: #9cdcfe;&quot;&gt;%d&lt;/span&gt;&lt;span style=&quot;color: #ce9178;&quot;&gt; &lt;/span&gt;&lt;span style=&quot;color: #d7ba7d;&quot;&gt;\n&lt;/span&gt;&lt;span style=&quot;color: #ce9178;&quot;&gt;sdt:&lt;/span&gt;&lt;span style=&quot;color: #9cdcfe;&quot;&gt;%d&lt;/span&gt;&lt;span style=&quot;color: #ce9178;&quot;&gt; &lt;/span&gt;&lt;span style=&quot;color: #d7ba7d;&quot;&gt;\n&lt;/span&gt;&lt;span style=&quot;color: #ce9178;&quot;&gt;email:&lt;/span&gt;&lt;span style=&quot;color: #9cdcfe;&quot;&gt;%s&lt;/span&gt;&lt;span style=&quot;color: #ce9178;&quot;&gt; &lt;/span&gt;&lt;span style=&quot;color: #d7ba7d;&quot;&gt;\n&lt;/span&gt;&lt;span style=&quot;color: #ce9178;&quot;&gt;&quot;&lt;/span&gt;,&lt;span style=&quot;color: #9cdcfe;&quot;&gt;temp&lt;/span&gt;.&lt;span style=&quot;color: #9cdcfe;&quot;&gt;name&lt;/span&gt;, &lt;span style=&quot;color: #9cdcfe;&quot;&gt;temp&lt;/span&gt;.&lt;span style=&quot;color: #9cdcfe;&quot;&gt;age&lt;/span&gt;, &lt;span style=&quot;color: #9cdcfe;&quot;&gt;temp&lt;/span&gt;.&lt;span style=&quot;color: #9cdcfe;&quot;&gt;phone_number&lt;/span&gt;, &lt;span style=&quot;color: #9cdcfe;&quot;&gt;temp&lt;/span&gt;.&lt;span style=&quot;color: #9cdcfe;&quot;&gt;email_adress&lt;/span&gt;);&lt;/div&gt;" style="rhombus;whiteSpace=wrap;html=1;" parent="WIyWlLk6GJQsqaUBKTNV-1" vertex="1">
          <mxGeometry x="840" y="170" width="1090" height="140" as="geometry" />
        </mxCell>
        <mxCell id="kJ5VU3gBax6Lj0mMC8Lf-0" value="typedef student std" style="rounded=0;whiteSpace=wrap;html=1;" parent="WIyWlLk6GJQsqaUBKTNV-1" vertex="1">
          <mxGeometry x="730" y="-150" width="120" height="60" as="geometry" />
        </mxCell>
      </root>
    </mxGraphModel>
  </diagram>
</mxfile>
